<?xml version="1.0" encoding="UTF-8" ?>
<!DOCTYPE svg PUBLIC "-//W3C//DTD SVG 1.1//EN" "http://www.w3.org/Graphics/SVG/1.1/DTD/svg11.dtd">
<svg width="755pt" height="212pt" viewBox="0 0 755 212" version="1.1" xmlns="http://www.w3.org/2000/svg">
<g id="#ffed00ff">
<path fill="#ffed00" opacity="1.00" d=" M 87.00 37.30 C 92.13 35.40 97.62 35.11 102.90 33.84 C 107.29 33.39 111.72 33.39 116.12 33.83 C 126.44 35.49 136.79 37.97 145.96 43.20 C 150.50 45.71 154.64 48.88 158.68 52.13 L 158.53 52.33 C 158.33 52.59 157.93 53.10 157.73 53.36 C 157.92 56.53 157.33 59.74 155.89 62.58 C 152.33 66.43 148.19 69.66 144.33 73.20 C 135.88 70.63 129.95 63.62 122.13 59.85 C 118.69 57.96 113.81 56.03 114.12 51.30 C 113.81 49.69 114.20 47.50 112.59 46.50 C 108.34 43.80 102.99 44.50 98.24 44.97 C 94.36 42.61 90.51 40.19 87.00 37.30 Z" />
</g>
<g id="#ffd800ff">
<path fill="#ffd800" opacity="1.00" d=" M 64.96 48.52 C 71.62 43.63 79.06 39.83 86.90 37.23 L 87.00 37.30 C 90.51 40.19 94.36 42.61 98.24 44.97 C 91.68 46.50 84.89 48.29 79.44 52.44 C 77.66 53.72 76.76 55.79 75.83 57.69 C 71.92 54.99 68.74 51.39 64.96 48.52 Z" />
<path fill="#ffd800" opacity="1.00" d=" M 113.42 52.32 L 114.12 51.30 C 113.81 56.03 118.69 57.96 122.13 59.85 C 129.95 63.62 135.88 70.63 144.33 73.20 C 137.31 79.14 129.22 83.78 120.71 87.25 C 113.76 80.57 104.96 76.42 97.10 70.99 C 94.19 69.06 90.75 67.50 89.27 64.10 C 97.95 62.18 108.03 60.13 113.42 52.32 Z" />
</g>
<g id="#ecd53dec">
<path fill="#ecd53d" opacity="0.93" d=" M 79.44 52.44 C 84.89 48.29 91.68 46.50 98.24 44.97 C 102.99 44.50 108.34 43.80 112.59 46.50 C 114.20 47.50 113.81 49.69 114.12 51.30 L 113.42 52.32 C 114.13 49.46 111.52 47.86 109.26 47.01 C 103.24 44.94 96.74 47.35 90.84 48.92 C 85.15 50.74 79.54 53.54 75.81 58.36 L 75.83 57.69 C 76.76 55.79 77.66 53.72 79.44 52.44 Z" />
</g>
<g id="#9e95489e">
<path fill="#9e9548" opacity="0.62" d=" M 90.84 48.92 C 96.74 47.35 103.24 44.94 109.26 47.01 C 103.07 46.33 96.82 47.31 90.84 48.92 Z" />
</g>
<g id="#1212121e">
<path fill="#121212" opacity="0.12" d=" M 417.32 48.28 C 421.00 47.26 424.98 48.06 428.36 49.67 C 431.48 51.56 432.26 55.63 432.29 59.01 C 432.22 79.66 432.25 100.31 432.26 120.95 C 432.12 124.78 431.49 129.67 427.62 131.52 C 422.73 133.29 416.96 133.14 412.37 130.61 C 409.99 128.52 409.44 125.04 409.31 122.02 C 409.31 101.00 409.34 79.98 409.28 58.96 C 409.30 56.31 409.45 53.36 411.23 51.22 C 412.89 49.63 415.15 48.87 417.32 48.28 M 412.88 51.24 C 412.66 77.17 412.74 103.09 412.84 129.02 C 418.23 129.14 423.63 129.14 429.02 129.02 C 429.15 103.10 429.21 77.17 428.99 51.24 C 423.62 51.22 418.25 51.22 412.88 51.24 Z" />
</g>
<g id="#ffc300ff">
<path fill="#ffc300" opacity="1.00" d=" M 50.39 62.98 C 54.40 57.40 59.54 52.72 64.96 48.52 C 68.74 51.39 71.92 54.99 75.83 57.69 L 75.81 58.36 C 75.74 59.92 75.85 61.78 77.39 62.63 C 81.03 64.48 85.30 64.48 89.27 64.10 C 90.75 67.50 94.19 69.06 97.10 70.99 C 104.96 76.42 113.76 80.57 120.71 87.25 C 115.70 89.37 110.52 91.04 105.43 92.98 C 102.55 93.52 99.67 94.03 96.77 94.48 C 94.59 91.75 91.38 90.33 88.47 88.58 C 76.58 80.03 63.95 72.61 51.67 64.64 C 51.68 63.81 51.69 62.98 51.70 62.15 C 51.37 62.36 50.72 62.77 50.39 62.98 Z" />
</g>
<g id="#0c0c0c15">
<path fill="#0c0c0c" opacity="0.08" d=" M 234.29 54.34 C 246.18 48.33 260.23 48.34 272.96 51.29 C 275.65 52.14 278.62 53.34 279.96 56.01 C 282.15 60.06 282.20 64.91 281.39 69.33 C 280.87 72.78 277.35 75.21 273.95 74.83 C 267.91 74.21 262.13 71.43 255.97 72.01 C 252.05 72.52 247.93 73.28 244.76 75.82 C 240.05 79.33 237.89 85.37 237.75 91.08 C 237.63 96.77 238.82 102.91 242.88 107.15 C 246.73 110.37 252.02 112.00 257.00 111.03 C 258.73 110.49 260.72 108.45 259.43 106.60 C 258.43 104.03 255.26 104.32 253.05 103.80 C 249.01 103.62 245.50 100.05 245.24 96.05 C 244.98 92.41 244.91 88.32 247.20 85.24 C 249.32 82.67 252.89 82.13 256.03 82.17 C 261.33 82.18 266.63 82.22 271.94 82.16 C 275.26 82.24 278.99 82.06 281.77 84.21 C 283.75 86.16 284.87 88.77 286.32 91.10 C 289.11 88.14 290.01 83.86 293.22 81.22 C 299.79 73.62 310.20 70.50 320.00 71.09 C 330.28 70.97 340.89 75.82 346.24 84.83 C 349.36 89.42 349.70 95.12 351.99 100.07 C 354.59 98.99 357.16 97.27 357.43 94.18 C 352.20 91.33 352.48 84.63 353.65 79.62 C 356.50 74.16 363.16 72.57 368.75 71.61 C 375.47 70.80 382.62 70.34 388.98 73.09 C 395.10 75.44 400.19 80.60 402.12 86.90 C 404.46 93.00 403.77 99.63 403.86 106.02 C 403.72 112.65 404.23 119.29 403.63 125.90 C 403.24 129.75 399.83 132.81 396.02 133.09 C 390.96 134.26 386.02 132.14 381.03 131.82 C 376.66 132.47 372.56 134.61 368.08 134.55 C 363.16 134.29 358.15 132.87 354.28 129.71 C 350.90 127.04 349.86 122.62 347.10 119.45 C 341.62 127.46 332.86 133.26 323.11 134.27 C 312.34 135.72 300.04 132.94 292.83 124.29 C 290.17 121.47 288.84 117.71 286.24 114.85 C 284.84 119.32 285.16 124.89 280.74 127.75 C 273.04 133.08 263.16 133.92 254.04 133.90 C 243.16 134.25 231.42 131.33 223.68 123.25 C 212.43 113.22 209.65 96.62 212.54 82.38 C 215.32 70.52 223.15 59.63 234.29 54.34 M 249.07 54.18 C 241.48 55.13 234.08 58.16 228.33 63.26 C 221.42 69.23 217.02 77.90 216.08 86.96 C 214.79 97.96 216.71 110.18 224.51 118.53 C 230.19 124.92 238.48 128.46 246.87 129.43 C 258.38 130.62 270.50 129.37 280.78 123.74 C 280.89 111.34 280.87 98.94 280.79 86.53 C 270.34 86.47 259.88 86.44 249.43 86.55 C 249.37 90.99 249.38 95.43 249.40 99.87 C 249.97 99.88 251.11 99.90 251.69 99.91 C 255.26 101.85 261.52 100.89 262.36 106.02 C 263.51 110.16 259.97 113.95 255.96 114.23 C 249.92 114.54 243.65 112.10 239.72 107.43 C 236.53 104.11 235.67 99.39 234.96 95.02 C 234.17 86.39 237.39 76.53 245.40 72.22 C 250.35 69.13 256.39 69.37 262.00 69.60 C 266.55 69.69 270.74 72.20 275.37 71.53 C 275.85 71.75 276.83 72.17 277.31 72.38 C 277.50 67.21 277.49 62.04 277.37 56.88 C 268.31 53.80 258.54 52.98 249.07 54.18 M 311.53 75.70 C 303.25 77.01 295.39 82.24 292.06 90.11 C 288.88 97.74 288.78 106.62 291.52 114.40 C 294.39 122.34 301.79 128.11 310.02 129.61 C 319.70 131.47 330.81 130.23 338.34 123.34 C 344.73 117.50 347.08 108.44 346.53 100.02 C 346.28 92.21 342.59 84.36 336.02 79.93 C 328.94 75.02 319.81 74.49 311.53 75.70 M 357.15 79.35 C 356.82 83.49 356.95 87.64 357.07 91.78 C 357.68 91.45 358.91 90.79 359.52 90.46 C 363.86 90.92 367.75 88.39 372.03 88.15 C 374.59 87.79 378.11 88.22 379.12 91.03 C 379.85 92.47 378.15 93.73 376.89 93.95 C 370.94 95.53 364.19 95.16 359.00 98.88 C 358.83 99.30 358.49 100.14 358.32 100.57 C 349.45 106.82 349.43 122.55 359.01 128.13 C 367.13 132.63 379.26 130.48 383.76 121.85 C 383.78 124.24 383.88 126.63 384.04 129.02 C 389.23 129.20 394.42 129.24 399.61 128.98 C 399.57 117.75 399.75 106.52 399.52 95.30 C 399.38 88.01 395.90 80.13 388.77 77.27 C 378.58 73.18 367.06 75.53 357.15 79.35 Z" />
</g>
<g id="#494343ff">
<path fill="#494343" opacity="1.00" d=" M 412.88 51.24 C 418.25 51.22 423.62 51.22 428.99 51.24 C 429.21 77.17 429.15 103.10 429.02 129.02 C 423.63 129.14 418.23 129.14 412.84 129.02 C 412.74 103.09 412.66 77.17 412.88 51.24 Z" />
<path fill="#494343" opacity="1.00" d=" M 249.07 54.18 C 258.54 52.98 268.31 53.80 277.37 56.88 C 277.49 62.04 277.50 67.21 277.31 72.38 C 276.83 72.17 275.85 71.75 275.37 71.53 C 268.12 68.16 259.88 66.99 251.98 68.02 C 242.91 69.25 235.43 76.86 233.88 85.79 C 232.41 94.19 233.34 104.03 239.73 110.28 C 246.09 116.50 256.14 117.04 264.19 114.23 C 264.16 109.48 264.18 104.72 264.16 99.97 C 260.00 99.87 255.84 99.88 251.69 99.91 C 251.11 99.90 249.97 99.88 249.40 99.87 C 249.38 95.43 249.37 90.99 249.43 86.55 C 259.88 86.44 270.34 86.47 280.79 86.53 C 280.87 98.94 280.89 111.34 280.78 123.74 C 270.50 129.37 258.38 130.62 246.87 129.43 C 238.48 128.46 230.19 124.92 224.51 118.53 C 216.71 110.18 214.79 97.96 216.08 86.96 C 217.02 77.90 221.42 69.23 228.33 63.26 C 234.08 58.16 241.48 55.13 249.07 54.18 Z" />
<path fill="#494343" opacity="1.00" d=" M 576.87 67.00 C 579.58 67.00 582.29 67.00 585.00 67.00 C 585.14 86.29 584.72 105.61 585.20 124.89 C 585.61 129.22 590.65 128.05 593.60 127.51 C 593.59 129.67 593.61 131.84 593.65 134.01 C 589.26 135.37 583.98 135.81 580.11 132.90 C 576.97 130.25 576.93 125.79 576.87 122.02 C 576.87 103.68 576.86 85.34 576.87 67.00 Z" />
<path fill="#494343" opacity="1.00" d=" M 554.35 69.11 C 557.36 68.99 560.38 68.97 563.40 69.00 C 563.39 71.33 563.39 73.67 563.40 76.00 C 560.38 76.01 557.37 76.01 554.37 75.92 C 554.38 73.65 554.37 71.38 554.35 69.11 Z" />
<path fill="#494343" opacity="1.00" d=" M 605.38 69.04 C 608.38 69.00 611.39 68.99 614.40 69.00 C 614.39 71.33 614.39 73.67 614.40 76.00 C 611.39 76.01 608.39 76.00 605.39 75.97 C 605.39 73.66 605.39 71.35 605.38 69.04 Z" />
<path fill="#494343" opacity="1.00" d=" M 445.37 70.05 C 448.06 70.00 450.76 69.99 453.46 69.99 C 453.48 83.33 453.45 96.67 453.47 110.01 C 453.51 114.47 454.25 119.27 457.39 122.67 C 461.02 126.77 466.77 128.12 472.06 128.05 C 477.14 128.17 482.63 127.06 486.38 123.38 C 489.65 120.19 490.89 115.48 490.86 111.02 C 490.89 97.35 490.85 83.68 490.87 70.00 C 493.58 70.00 496.29 70.00 499.00 70.00 C 498.97 84.00 499.05 98.01 498.97 112.01 C 498.92 119.68 495.40 127.71 488.41 131.42 C 480.67 135.47 471.40 135.82 462.99 134.01 C 456.97 132.77 451.20 129.19 448.32 123.63 C 446.00 119.47 445.44 114.62 445.43 109.92 C 445.34 96.63 445.47 83.34 445.37 70.05 Z" />
<path fill="#494343" opacity="1.00" d=" M 515.16 75.34 C 517.87 74.57 520.57 73.75 523.26 72.89 C 523.26 77.59 523.27 82.28 523.25 86.98 C 527.57 87.01 531.89 87.00 536.21 87.00 C 536.02 89.33 535.84 91.66 535.68 93.99 C 531.53 94.00 527.39 94.00 523.25 94.02 C 523.31 103.02 523.21 112.02 523.29 121.02 C 523.15 123.54 524.21 126.32 526.72 127.29 C 530.21 128.63 534.04 127.93 537.62 127.33 C 537.51 129.50 537.40 131.68 537.31 133.87 C 532.16 135.11 526.50 135.82 521.55 133.49 C 517.29 131.43 515.09 126.60 515.16 122.02 C 515.07 112.69 515.17 103.34 515.13 94.00 C 512.75 94.00 510.37 94.00 508.00 94.00 C 508.00 91.66 508.00 89.33 508.00 87.00 C 510.37 87.00 512.75 87.00 515.13 87.00 C 515.13 83.11 515.12 79.23 515.16 75.34 Z" />
<path fill="#494343" opacity="1.00" d=" M 631.15 75.35 C 633.86 74.57 636.57 73.75 639.26 72.89 C 639.26 77.59 639.27 82.29 639.26 86.99 C 643.57 87.01 647.89 87.00 652.21 87.00 C 652.01 89.33 651.83 91.66 651.67 94.00 C 647.53 94.00 643.39 93.99 639.25 94.01 C 639.31 103.03 639.21 112.04 639.29 121.05 C 639.15 123.55 640.21 126.30 642.69 127.27 C 646.18 128.64 650.03 127.94 653.62 127.32 C 653.51 129.50 653.40 131.68 653.31 133.86 C 648.17 135.11 642.52 135.83 637.57 133.50 C 633.33 131.46 631.11 126.66 631.17 122.10 C 631.07 112.74 631.17 103.37 631.13 94.00 C 628.75 94.00 626.37 94.00 624.00 94.00 C 623.99 91.66 623.99 89.33 624.00 87.00 C 626.37 87.00 628.75 87.00 631.13 87.00 C 631.13 83.11 631.13 79.23 631.15 75.35 Z" />
<path fill="#494343" opacity="1.00" d=" M 311.53 75.70 C 319.81 74.49 328.94 75.02 336.02 79.93 C 342.59 84.36 346.28 92.21 346.53 100.02 C 347.08 108.44 344.73 117.50 338.34 123.34 C 330.81 130.23 319.70 131.47 310.02 129.61 C 301.79 128.11 294.39 122.34 291.52 114.40 C 288.78 106.62 288.88 97.74 292.06 90.11 C 295.39 82.24 303.25 77.01 311.53 75.70 M 314.19 88.33 C 309.62 89.70 307.04 94.39 306.50 98.88 C 305.95 103.93 306.05 109.58 309.15 113.86 C 312.31 117.94 318.31 118.58 322.93 117.02 C 327.39 115.38 329.32 110.46 329.71 106.07 C 330.12 101.25 330.10 95.91 327.26 91.76 C 324.38 87.72 318.66 86.92 314.19 88.33 Z" />
<path fill="#494343" opacity="1.00" d=" M 357.15 79.35 C 367.06 75.53 378.58 73.18 388.77 77.27 C 395.90 80.13 399.38 88.01 399.52 95.30 C 399.75 106.52 399.57 117.75 399.61 128.98 C 394.42 129.24 389.23 129.20 384.04 129.02 C 383.88 126.63 383.78 124.24 383.76 121.85 C 379.26 130.48 367.13 132.63 359.01 128.13 C 349.43 122.55 349.45 106.82 358.32 100.57 C 366.20 95.90 375.67 96.40 384.39 94.71 C 383.92 91.48 382.71 87.70 379.08 86.89 C 372.44 85.27 365.38 87.22 359.52 90.46 C 358.91 90.79 357.68 91.45 357.07 91.78 C 356.95 87.64 356.82 83.49 357.15 79.35 M 370.56 106.61 C 366.34 108.28 365.66 114.87 369.37 117.40 C 373.54 120.12 379.71 118.56 382.30 114.37 C 384.42 111.47 384.20 107.70 384.28 104.29 C 379.70 104.94 374.89 104.81 370.56 106.61 Z" />
<path fill="#494343" opacity="1.00" d=" M 547.90 94.00 C 548.19 91.66 548.47 89.32 548.76 86.98 C 553.59 87.01 558.43 86.99 563.26 87.00 C 563.26 102.67 563.27 118.33 563.26 134.00 C 560.54 134.00 557.83 134.00 555.13 133.99 C 555.14 120.66 555.14 107.33 555.13 94.00 C 552.72 94.00 550.31 94.00 547.90 94.00 Z" />
<path fill="#494343" opacity="1.00" d=" M 598.91 94.00 C 599.19 91.66 599.47 89.33 599.74 86.99 C 604.58 87.00 609.42 87.00 614.26 87.00 C 614.27 102.67 614.26 118.33 614.26 134.00 C 611.55 134.00 608.84 134.00 606.13 134.00 C 606.13 120.66 606.14 107.33 606.13 94.00 C 603.72 94.00 601.31 94.00 598.91 94.00 Z" />
<path fill="#494343" opacity="1.00" d=" M 656.92 87.00 C 659.69 87.00 662.47 87.00 665.26 86.96 C 670.87 99.61 676.11 112.41 681.64 125.10 C 687.45 112.54 692.91 99.82 698.41 87.12 C 701.22 86.99 704.05 86.98 706.88 86.99 C 699.73 103.18 692.77 119.45 685.64 135.64 C 682.97 141.21 680.13 147.38 674.43 150.44 C 669.83 152.84 664.52 151.97 659.69 150.89 C 659.62 148.66 659.57 146.43 659.52 144.20 C 663.21 144.90 667.40 145.84 670.87 143.85 C 674.49 141.68 675.82 137.43 677.69 133.90 C 670.67 118.31 663.92 102.60 656.92 87.00 Z" />
<path fill="#494343" opacity="1.00" d=" M 540.73 151.00 C 541.36 151.00 542.63 151.00 543.26 151.00 C 543.25 157.76 543.31 164.53 543.23 171.30 C 542.58 170.87 541.28 170.03 540.64 169.61 C 537.76 171.56 533.39 171.72 531.07 168.84 C 529.16 165.24 529.38 159.37 533.56 157.48 C 535.89 156.35 538.48 157.31 540.79 157.98 C 540.74 155.66 540.73 153.33 540.73 151.00 M 534.47 159.46 C 531.86 161.03 532.09 164.57 532.78 167.12 C 534.50 169.94 538.19 169.03 540.71 167.93 C 540.71 165.31 540.73 162.70 540.77 160.08 C 538.81 159.32 536.47 158.31 534.47 159.46 Z" />
<path fill="#494343" opacity="1.00" d=" M 316.10 154.09 C 319.23 151.45 323.91 151.45 327.58 152.87 C 327.74 153.35 328.08 154.31 328.25 154.79 C 324.61 154.13 319.83 152.84 317.19 156.28 C 315.34 159.38 315.28 163.73 317.19 166.81 C 319.68 169.94 324.07 168.92 327.48 168.46 C 327.67 168.93 328.04 169.87 328.23 170.34 C 324.03 171.13 318.78 171.95 315.58 168.40 C 312.43 164.39 312.76 157.90 316.10 154.09 Z" />
<path fill="#494343" opacity="1.00" d=" M 448.00 152.00 C 448.60 152.00 449.80 152.00 450.39 152.00 C 450.39 157.65 450.42 163.30 450.37 168.95 C 453.77 169.01 457.17 169.00 460.58 169.02 C 460.48 169.49 460.28 170.44 460.18 170.91 C 456.12 171.15 452.06 170.94 448.00 171.00 C 448.00 164.66 448.00 158.33 448.00 152.00 Z" />
<path fill="#494343" opacity="1.00" d=" M 505.46 153.66 C 506.08 153.49 507.32 153.13 507.94 152.95 C 507.90 154.26 507.87 155.58 507.85 156.89 C 509.28 157.02 510.71 157.15 512.16 157.30 C 511.57 159.30 509.52 159.01 507.88 159.14 C 507.88 162.06 507.70 164.99 508.01 167.90 C 508.85 169.50 510.85 168.82 512.29 169.12 C 511.83 172.36 506.86 171.28 505.77 168.91 C 505.28 165.77 505.58 162.58 505.57 159.42 C 504.52 158.96 503.38 158.58 502.79 157.53 C 503.50 157.32 504.93 156.92 505.64 156.72 C 505.60 155.95 505.51 154.43 505.46 153.66 Z" />
<path fill="#494343" opacity="1.00" d=" M 334.23 157.16 C 336.88 156.61 340.16 156.97 341.94 159.24 C 343.78 162.06 343.76 166.02 341.96 168.86 C 338.92 172.08 332.39 171.93 330.14 167.86 C 328.57 164.02 329.33 157.97 334.23 157.16 M 333.49 159.64 C 330.57 162.12 331.21 169.24 335.96 169.03 C 339.49 169.69 341.62 166.03 340.82 162.92 C 340.96 159.22 336.20 158.00 333.49 159.64 Z" />
<path fill="#494343" opacity="1.00" d=" M 346.49 156.97 C 348.00 156.69 348.83 157.25 348.98 158.66 C 351.65 156.83 355.04 156.36 357.70 158.44 C 360.54 157.22 365.02 155.57 366.94 159.07 C 368.04 162.92 367.25 167.05 367.45 171.02 C 366.87 171.01 365.70 170.98 365.11 170.97 C 364.96 167.37 365.61 163.65 364.73 160.13 C 363.04 158.07 360.13 159.20 358.10 160.09 C 358.15 163.73 358.13 167.36 358.13 171.00 C 357.56 171.00 356.43 171.00 355.86 171.00 C 355.74 167.42 356.22 163.78 355.57 160.24 C 354.19 157.92 350.29 159.01 348.97 160.98 C 348.70 164.33 348.91 167.69 348.87 171.05 C 348.27 171.00 347.08 170.92 346.49 170.88 C 346.56 166.24 346.55 161.61 346.49 156.97 Z" />
<path fill="#494343" opacity="1.00" d=" M 371.59 156.67 C 372.31 156.98 373.76 157.59 374.49 157.90 C 377.67 156.51 382.29 156.36 384.09 159.93 C 385.28 163.27 385.26 168.03 381.99 170.21 C 379.45 171.73 376.36 170.89 373.83 169.82 C 373.86 172.21 373.87 174.59 373.88 176.98 C 373.29 176.99 372.13 177.00 371.54 177.01 C 371.55 170.23 371.47 163.45 371.59 156.67 M 373.90 168.00 C 376.13 168.91 378.98 169.74 381.06 168.03 C 382.74 166.17 382.73 163.26 381.91 161.01 C 380.90 158.80 377.97 158.54 375.94 159.31 C 372.31 160.53 374.36 165.16 373.90 168.00 Z" />
<path fill="#494343" opacity="1.00" d=" M 388.89 157.71 C 392.30 156.97 397.19 155.85 399.38 159.42 C 400.35 163.27 399.72 167.34 399.83 171.28 C 399.20 171.02 397.94 170.50 397.31 170.24 C 394.62 170.83 391.46 171.79 388.98 170.09 C 386.46 168.61 387.19 164.22 389.94 163.40 C 392.44 162.72 395.08 163.06 397.64 162.98 C 397.58 162.19 397.46 160.60 397.39 159.80 C 394.78 158.56 391.88 158.96 389.20 159.72 C 389.12 159.22 388.97 158.21 388.89 157.71 M 391.07 165.14 C 389.84 165.76 389.12 167.59 390.54 168.46 C 392.56 169.84 395.24 168.56 397.36 167.96 C 397.44 167.21 397.59 165.73 397.66 164.99 C 395.46 165.00 393.25 164.88 391.07 165.14 Z" />
<path fill="#494343" opacity="1.00" d=" M 404.00 157.00 C 404.56 157.00 405.69 157.00 406.26 157.00 C 406.24 157.45 406.21 158.36 406.19 158.81 C 409.09 157.02 413.75 155.64 416.10 158.97 C 417.30 162.82 416.53 167.01 416.74 170.99 C 416.11 170.98 414.86 170.96 414.23 170.95 C 414.18 167.34 414.58 163.69 413.98 160.11 C 412.03 158.01 408.45 158.93 406.53 160.67 C 406.21 164.10 406.45 167.55 406.40 171.00 C 405.80 171.00 404.60 171.00 404.00 171.00 C 404.00 166.33 404.00 161.67 404.00 157.00 Z" />
<path fill="#494343" opacity="1.00" d=" M 419.37 156.83 C 419.98 156.91 421.20 157.08 421.82 157.17 C 423.79 160.66 424.99 164.52 426.64 168.17 C 428.63 164.62 429.71 160.60 431.89 157.16 C 432.45 157.08 433.58 156.92 434.15 156.84 C 432.17 161.53 430.10 166.19 428.05 170.85 C 427.07 173.00 425.83 175.61 423.22 176.02 C 421.55 176.46 420.51 175.78 419.78 174.39 C 422.30 174.26 424.58 173.50 425.70 171.06 C 423.55 166.33 421.50 161.56 419.37 156.83 Z" />
<path fill="#494343" opacity="1.00" d=" M 471.00 157.00 C 471.57 157.00 472.70 157.00 473.26 157.00 C 473.24 157.46 473.21 158.37 473.19 158.83 C 475.85 157.00 479.62 156.00 482.19 158.58 C 484.94 156.93 489.90 155.66 491.56 159.35 C 492.45 163.15 491.84 167.13 491.99 171.00 C 491.40 171.00 490.20 171.00 489.61 171.00 C 489.61 167.45 489.58 163.90 489.61 160.35 C 487.71 158.29 484.99 159.14 482.69 159.87 C 482.58 163.56 482.56 167.26 482.63 170.95 C 482.06 170.96 480.93 170.96 480.37 170.96 C 480.28 167.37 480.76 163.73 480.10 160.18 C 478.45 157.68 475.35 159.48 473.39 160.57 C 473.41 164.05 473.39 167.52 473.39 171.00 C 472.79 171.00 471.60 171.00 471.00 171.00 C 471.00 166.33 471.00 161.67 471.00 157.00 Z" />
<path fill="#494343" opacity="1.00" d=" M 494.86 158.22 C 496.09 156.56 498.25 157.16 500.00 156.90 C 500.00 161.60 500.00 166.30 500.00 171.00 C 499.40 171.00 498.21 171.00 497.61 171.00 C 497.59 167.11 497.58 163.21 497.65 159.32 C 496.96 159.05 495.56 158.50 494.86 158.22 Z" />
<path fill="#494343" opacity="1.00" d=" M 515.72 158.66 C 518.31 156.39 522.78 156.23 525.28 158.75 C 526.79 160.42 526.44 162.85 526.76 164.92 C 523.21 165.02 519.66 164.99 516.11 165.04 C 516.80 169.77 522.22 169.48 525.71 168.37 C 526.44 170.74 523.63 170.87 522.02 171.04 C 519.03 171.29 515.31 170.22 514.34 167.03 C 513.73 164.27 513.60 160.86 515.72 158.66 M 516.94 159.91 C 516.69 160.90 516.43 161.90 516.18 162.89 C 518.98 163.00 521.79 163.02 524.60 162.99 C 525.06 158.51 519.87 158.28 516.94 159.91 Z" />
</g>
<g id="#ffef00ff">
<path fill="#ffef00" opacity="1.00" d=" M 158.53 52.33 C 169.93 61.69 178.28 74.87 181.90 89.18 C 181.39 89.34 180.36 89.64 179.85 89.80 C 174.48 86.77 169.61 82.96 164.38 79.71 C 161.61 77.81 157.38 76.14 158.38 71.96 C 161.06 65.73 161.61 58.53 158.53 52.33 Z" />
</g>
<g id="#ffb100ff">
<path fill="#ffb100" opacity="1.00" d=" M 50.39 62.98 C 50.72 62.77 51.37 62.36 51.70 62.15 C 51.69 62.98 51.68 63.81 51.67 64.64 C 63.95 72.61 76.58 80.03 88.47 88.58 C 91.38 90.33 94.59 91.75 96.77 94.48 C 87.64 95.99 78.25 96.01 69.07 94.79 C 60.60 93.66 53.03 88.48 48.50 81.30 C 46.25 78.64 45.81 75.12 45.77 71.76 C 46.73 68.59 48.09 65.42 50.39 62.98 Z" />
</g>
<g id="#f0d331f0">
<path fill="#f0d331" opacity="0.94" d=" M 144.33 73.20 C 148.19 69.66 152.33 66.43 155.89 62.58 C 152.32 69.75 145.92 74.96 139.45 79.42 C 130.19 85.52 120.13 90.66 109.40 93.56 C 108.41 93.41 106.42 93.13 105.43 92.98 C 110.52 91.04 115.70 89.37 120.71 87.25 C 129.22 83.78 137.31 79.14 144.33 73.20 Z" />
</g>
<g id="#1919192a">
<path fill="#191919" opacity="0.16" d=" M 233.88 85.79 C 235.43 76.86 242.91 69.25 251.98 68.02 C 259.88 66.99 268.12 68.16 275.37 71.53 C 270.74 72.20 266.55 69.69 262.00 69.60 C 256.39 69.37 250.35 69.13 245.40 72.22 C 237.39 76.53 234.17 86.39 234.96 95.02 C 235.67 99.39 236.53 104.11 239.72 107.43 C 243.65 112.10 249.92 114.54 255.96 114.23 C 259.97 113.95 263.51 110.16 262.36 106.02 C 261.52 100.89 255.26 101.85 251.69 99.91 C 255.84 99.88 260.00 99.87 264.16 99.97 C 264.18 104.72 264.16 109.48 264.19 114.23 C 256.14 117.04 246.09 116.50 239.73 110.28 C 233.34 104.03 232.41 94.19 233.88 85.79 Z" />
</g>
<g id="#e8b13fe8">
<path fill="#e8b13f" opacity="0.91" d=" M 46.70 81.36 C 45.13 78.41 45.12 74.96 45.77 71.76 C 45.81 75.12 46.25 78.64 48.50 81.30 C 53.03 88.48 60.60 93.66 69.07 94.79 C 78.25 96.01 87.64 95.99 96.77 94.48 C 99.67 94.03 102.55 93.52 105.43 92.98 C 106.42 93.13 108.41 93.41 109.40 93.56 C 106.07 94.71 102.65 95.61 99.18 96.18 C 96.62 96.23 94.06 96.13 91.51 96.30 C 85.21 98.60 78.30 96.93 71.74 97.16 C 61.46 96.60 51.42 90.61 46.70 81.36 Z" />
</g>
<g id="#ffdc00ff">
<path fill="#ffdc00" opacity="1.00" d=" M 139.34 94.35 C 147.35 88.54 154.10 80.91 158.38 71.96 C 157.38 76.14 161.61 77.81 164.38 79.71 C 169.61 82.96 174.48 86.77 179.85 89.80 C 180.36 89.64 181.39 89.34 181.90 89.18 L 181.99 89.16 C 183.86 95.39 181.56 101.90 178.87 107.52 C 175.50 110.82 172.44 114.40 169.19 117.81 C 163.45 115.11 158.82 110.66 153.30 107.58 C 148.19 104.69 143.32 101.39 138.61 97.89 C 138.85 96.71 139.10 95.53 139.34 94.35 Z" />
</g>
<g id="#18181829">
<path fill="#181818" opacity="0.16" d=" M 359.52 90.46 C 365.38 87.22 372.44 85.27 379.08 86.89 C 382.71 87.70 383.92 91.48 384.39 94.71 C 375.67 96.40 366.20 95.90 358.32 100.57 C 358.49 100.14 358.83 99.30 359.00 98.88 C 364.19 95.16 370.94 95.53 376.89 93.95 C 378.15 93.73 379.85 92.47 379.12 91.03 C 378.11 88.22 374.59 87.79 372.03 88.15 C 367.75 88.39 363.86 90.92 359.52 90.46 Z" />
<path fill="#181818" opacity="0.16" d=" M 370.56 106.61 C 374.89 104.81 379.70 104.94 384.28 104.29 C 384.20 107.70 384.42 111.47 382.30 114.37 C 379.71 118.56 373.54 120.12 369.37 117.40 C 365.66 114.87 366.34 108.28 370.56 106.61 M 374.38 107.47 C 371.02 108.04 368.47 112.22 370.77 115.17 C 374.94 119.06 381.54 114.25 381.67 109.37 C 380.32 106.63 376.88 106.88 374.38 107.47 Z" />
</g>
<g id="#13131321">
<path fill="#131313" opacity="0.13" d=" M 314.19 88.33 C 318.66 86.92 324.38 87.72 327.26 91.76 C 330.10 95.91 330.12 101.25 329.71 106.07 C 329.32 110.46 327.39 115.38 322.93 117.02 C 318.31 118.58 312.31 117.94 309.15 113.86 C 306.05 109.58 305.95 103.93 306.50 98.88 C 307.04 94.39 309.62 89.70 314.19 88.33 M 315.41 91.43 C 312.15 92.25 310.38 95.61 309.67 98.65 C 308.88 102.97 309.00 107.80 311.48 111.59 C 314.30 114.92 319.60 115.62 323.20 113.14 C 327.65 109.00 327.23 102.25 326.08 96.82 C 324.76 92.24 319.85 90.05 315.41 91.43 Z" />
</g>
<g id="#ffc600ff">
<path fill="#ffc600" opacity="1.00" d=" M 125.76 102.09 C 130.48 99.87 135.03 97.31 139.34 94.35 C 139.10 95.53 138.85 96.71 138.61 97.89 C 143.32 101.39 148.19 104.69 153.30 107.58 C 158.82 110.66 163.45 115.11 169.19 117.81 C 166.21 120.88 162.95 123.68 159.44 126.13 C 147.94 119.23 136.78 111.82 125.55 104.52 C 125.62 103.71 125.69 102.90 125.76 102.09 Z" />
</g>
<g id="#947c4794">
<path fill="#947c47" opacity="0.58" d=" M 91.51 96.30 C 94.06 96.13 96.62 96.23 99.18 96.18 C 96.90 96.70 94.58 96.99 92.32 97.58 C 85.46 97.90 78.52 98.62 71.74 97.16 C 78.30 96.93 85.21 98.60 91.51 96.30 Z" />
</g>
<g id="#ff8f00ff">
<path fill="#ff8f00" opacity="1.00" d=" M 35.17 96.30 C 45.04 104.07 56.94 108.85 69.31 110.79 C 67.90 111.35 66.52 111.97 65.13 112.59 C 71.88 117.80 79.56 121.59 86.39 126.67 C 89.88 129.22 93.48 131.60 97.26 133.70 C 103.52 137.07 108.78 142.17 115.62 144.45 C 115.06 145.00 114.49 145.56 113.93 146.12 C 97.05 150.02 79.15 149.87 62.38 145.48 C 54.09 143.34 46.83 138.07 41.68 131.30 C 39.13 127.87 38.13 123.51 35.20 120.32 C 33.93 112.37 34.34 104.28 35.17 96.30 Z" />
<path fill="#ff8f00" opacity="1.00" d=" M 130.73 156.31 C 139.12 161.34 147.49 166.45 155.47 172.11 C 153.39 175.29 151.73 178.73 149.51 181.82 C 147.10 180.51 146.33 177.46 144.40 175.60 C 143.32 174.08 141.37 174.94 139.94 175.30 C 135.01 177.65 129.82 179.41 124.44 180.40 C 124.48 179.88 124.57 178.86 124.62 178.34 C 122.28 178.61 119.71 178.97 117.85 177.17 C 112.57 172.93 106.43 169.92 101.17 165.65 C 103.29 165.17 105.31 164.37 106.85 162.79 C 114.84 160.93 123.26 159.96 130.73 156.31 Z" />
</g>
<g id="#ffb500ff">
<path fill="#ffb500" opacity="1.00" d=" M 105.41 108.89 C 112.37 107.17 119.19 104.95 125.76 102.09 C 125.69 102.90 125.62 103.71 125.55 104.52 C 136.78 111.82 147.94 119.23 159.44 126.13 C 154.19 130.10 148.63 133.70 142.50 136.16 C 135.34 132.28 128.86 127.33 121.95 123.04 C 116.24 119.13 110.13 115.84 104.62 111.65 C 104.88 110.73 105.15 109.81 105.41 108.89 Z" />
</g>
<g id="#0707070c">
<path fill="#070707" opacity="0.05" d=" M 374.38 107.47 C 376.88 106.88 380.32 106.63 381.67 109.37 C 381.54 114.25 374.94 119.06 370.77 115.17 C 368.47 112.22 371.02 108.04 374.38 107.47 Z" />
</g>
<g id="#edbd2bed">
<path fill="#edbd2b" opacity="0.93" d=" M 169.19 117.81 C 172.44 114.40 175.50 110.82 178.87 107.52 C 172.61 119.97 160.94 128.80 148.93 135.27 C 145.55 136.27 142.32 137.75 139.55 139.95 C 138.86 140.41 138.18 140.87 137.50 141.34 C 137.39 141.62 137.17 142.18 137.06 142.46 C 136.16 142.73 135.26 143.02 134.37 143.31 C 136.20 140.07 139.01 137.49 142.50 136.16 C 148.63 133.70 154.19 130.10 159.44 126.13 C 162.95 123.68 166.21 120.88 169.19 117.81 Z" />
</g>
<g id="#ffa100ff">
<path fill="#ffa100" opacity="1.00" d=" M 69.31 110.79 C 81.34 112.31 93.60 111.65 105.41 108.89 C 105.15 109.81 104.88 110.73 104.62 111.65 C 110.13 115.84 116.24 119.13 121.95 123.04 C 128.86 127.33 135.34 132.28 142.50 136.16 C 139.01 137.49 136.20 140.07 134.37 143.31 C 135.26 143.02 136.16 142.73 137.06 142.46 C 138.09 142.23 140.14 141.76 141.16 141.53 L 141.72 141.85 C 144.01 146.11 148.84 147.87 152.70 150.39 C 156.77 152.66 160.60 155.34 164.37 158.09 C 161.30 162.70 158.43 167.43 155.47 172.11 C 147.49 166.45 139.12 161.34 130.73 156.31 C 130.23 151.76 127.17 148.01 124.20 144.74 C 120.78 143.84 117.30 145.59 113.93 146.12 C 114.49 145.56 115.06 145.00 115.62 144.45 C 108.78 142.17 103.52 137.07 97.26 133.70 C 93.48 131.60 89.88 129.22 86.39 126.67 C 79.56 121.59 71.88 117.80 65.13 112.59 C 66.52 111.97 67.90 111.35 69.31 110.79 Z" />
</g>
<g id="#ffa147ff">
<path fill="#ffa147" opacity="1.00" d=" M 35.20 120.32 C 38.13 123.51 39.13 127.87 41.68 131.30 C 46.83 138.07 54.09 143.34 62.38 145.48 C 79.15 149.87 97.05 150.02 113.93 146.12 C 117.30 145.59 120.78 143.84 124.20 144.74 C 127.17 148.01 130.23 151.76 130.73 156.31 C 127.18 153.78 126.28 148.84 123.01 146.08 C 111.00 149.53 98.50 151.47 85.99 151.13 C 73.26 150.21 59.49 149.07 48.94 141.13 C 42.10 136.16 36.45 128.87 35.20 120.32 Z" />
<path fill="#ffa147" opacity="1.00" d=" M 139.55 139.95 C 142.32 137.75 145.55 136.27 148.93 135.27 C 145.96 137.12 142.87 138.82 139.55 139.95 Z" />
<path fill="#ffa147" opacity="1.00" d=" M 53.65 158.88 C 56.48 160.43 59.25 162.12 61.70 164.25 C 68.80 170.31 77.01 175.10 85.87 178.07 C 98.20 182.33 111.67 182.71 124.44 180.40 C 129.82 179.41 135.01 177.65 139.94 175.30 C 140.46 175.50 141.51 175.92 142.03 176.12 C 141.56 177.36 139.96 177.61 138.90 178.18 C 123.20 184.57 105.37 185.95 89.04 181.18 C 75.44 177.32 63.05 169.41 53.65 158.88 Z" />
</g>
<g id="#ffbd00ff">
<path fill="#ffbd00" opacity="1.00" d=" M 161.98 136.30 C 169.23 134.62 176.42 132.70 183.72 131.26 C 180.79 135.49 178.12 139.88 175.40 144.23 C 174.90 144.07 173.90 143.75 173.40 143.59 C 173.21 143.88 172.84 144.47 172.65 144.76 C 168.97 142.11 164.68 140.10 161.98 136.30 Z" />
</g>
<g id="#ffaf00ff">
<path fill="#ffaf00" opacity="1.00" d=" M 141.90 141.27 C 148.46 139.18 155.31 138.03 161.98 136.30 C 164.68 140.10 168.97 142.11 172.65 144.76 C 169.81 149.16 167.19 153.69 164.37 158.09 C 160.60 155.34 156.77 152.66 152.70 150.39 C 148.84 147.87 144.01 146.11 141.72 141.85 L 141.90 141.27 Z" />
</g>
<g id="#f5a31bf5">
<path fill="#f5a31b" opacity="0.96" d=" M 173.40 143.59 C 173.90 143.75 174.90 144.07 175.40 144.23 C 166.78 158.13 158.12 171.99 149.41 185.82 C 149.21 185.84 148.83 185.88 148.64 185.90 C 146.20 182.82 144.98 178.71 142.03 176.12 C 141.51 175.92 140.46 175.50 139.94 175.30 C 141.37 174.94 143.32 174.08 144.40 175.60 C 146.33 177.46 147.10 180.51 149.51 181.82 C 151.73 178.73 153.39 175.29 155.47 172.11 C 158.43 167.43 161.30 162.70 164.37 158.09 C 167.19 153.69 169.81 149.16 172.65 144.76 C 172.84 144.47 173.21 143.88 173.40 143.59 Z" />
</g>
<g id="#3f3a3add">
<path fill="#3f3a3a" opacity="0.87" d=" M 464.05 151.25 C 464.98 150.08 467.90 151.15 466.71 152.71 C 465.74 153.95 462.78 152.86 464.05 151.25 Z" />
<path fill="#3f3a3a" opacity="0.87" d=" M 497.31 151.27 C 498.28 150.04 501.24 151.18 499.93 152.77 C 498.97 153.92 496.06 152.80 497.31 151.27 Z" />
</g>
<g id="#ff7d00ff">
<path fill="#ff7d00" opacity="1.00" d=" M 50.15 155.12 C 67.64 163.79 87.74 164.98 106.85 162.79 C 105.31 164.37 103.29 165.17 101.17 165.65 C 106.43 169.92 112.57 172.93 117.85 177.17 C 119.71 178.97 122.28 178.61 124.62 178.34 C 124.57 178.86 124.48 179.88 124.44 180.40 C 111.67 182.71 98.20 182.33 85.87 178.07 C 77.01 175.10 68.80 170.31 61.70 164.25 C 59.25 162.12 56.48 160.43 53.65 158.88 C 52.10 158.03 51.17 156.49 50.15 155.12 Z" />
</g>
<g id="#453f3ff0">
<path fill="#453f3f" opacity="0.94" d=" M 461.73 158.91 C 461.71 156.14 464.70 157.21 466.49 156.91 C 466.50 161.61 466.50 166.30 466.49 171.00 C 465.89 171.00 464.68 171.00 464.08 171.00 C 464.08 167.02 464.08 163.04 464.08 159.06 C 463.49 159.02 462.32 158.95 461.73 158.91 Z" />
</g>
</svg>
